<svg width="30" height="30" viewBox="0 0 30 30" fill="none" xmlns="http://www.w3.org/2000/svg">
<g clip-path="url(#clip0)">
<path d="M0.937476 1.87495H29.0624C29.58 1.87495 29.9999 1.45492 29.9999 0.937476C29.9999 0.419955 29.5799 0 29.0624 0H0.937476C0.419955 0 0 0.420033 0 0.937476C0 1.45492 0.420033 1.87495 0.937476 1.87495Z" fill="#7500BD"/>
<path d="M29.0624 6.5625H0.937476C0.419955 6.5625 0 6.98253 0 7.49997C0 8.01741 0.420033 8.43744 0.937476 8.43744H29.0624C29.58 8.43744 29.9999 8.01741 29.9999 7.49997C29.9999 6.98253 29.58 6.5625 29.0624 6.5625Z" fill="#7500BD"/>
<path d="M29.0622 13.125H10.3122C9.79471 13.125 9.37476 13.545 9.37476 14.0625C9.37476 14.58 9.79479 15 10.3122 15H29.0622C29.5797 15 29.9997 14.5799 29.9997 14.0625C29.9998 13.545 29.5797 13.125 29.0622 13.125Z" fill="#7500BD"/>
</g>
<defs>
<clipPath id="clip0">
<rect width="30" height="30" fill="white"/>
</clipPath>
</defs>
</svg>
