<svg width="35" height="35" viewBox="0 0 35 35" fill="none" xmlns="http://www.w3.org/2000/svg">
<path d="M33.9336 12.8873C33.7674 12.5484 33.3578 12.4081 33.0189 12.5745C32.6799 12.7407 32.5398 13.1502 32.7061 13.4892C33.3208 14.7431 33.6326 16.0925 33.6326 17.5C33.6326 22.5301 29.5404 26.6224 24.5102 26.6224C19.4801 26.6224 15.3878 22.5301 15.3878 17.5C15.3878 12.4698 19.4801 8.37756 24.5102 8.37756C25.9941 8.37756 27.4667 8.74164 28.769 9.43043C29.1029 9.60687 29.5164 9.47938 29.6929 9.14579C29.8694 8.81206 29.742 8.39841 29.4083 8.22191C27.9098 7.42928 26.2162 7.01038 24.5103 7.01038C23.1514 7.01038 21.852 7.27021 20.6592 7.74271C19.4321 7.25708 18.1359 7.01038 16.803 7.01038C11.0191 7.01038 6.31348 11.716 6.31348 17.5C6.31348 23.284 11.0191 27.9896 16.803 27.9896C18.1362 27.9896 19.4324 27.7432 20.6595 27.2574C21.8522 27.7298 23.1515 27.9896 24.5103 27.9896C30.2942 27.9896 34.9998 23.2839 34.9998 17.5C34.9998 15.8821 34.6411 14.3301 33.9336 12.8873ZM16.803 26.6224C11.7729 26.6224 7.6806 22.5301 7.6806 17.5C7.6806 12.4698 11.7729 8.37756 16.803 8.37756C17.5249 8.37756 18.2341 8.4611 18.9241 8.6255C15.9802 10.4852 14.0207 13.7678 14.0207 17.5C14.0207 21.2321 15.9802 24.5148 18.9241 26.3745C18.2342 26.5389 17.525 26.6224 16.803 26.6224Z" fill="#7500BD"/>
<path d="M16.8032 5.37112C17.1807 5.37112 17.4868 5.06507 17.4868 4.68752V1.38043C17.4868 1.00288 17.1807 0.696838 16.8032 0.696838C16.4257 0.696838 16.1196 1.00288 16.1196 1.38043V4.68752C16.1196 5.06507 16.4257 5.37112 16.8032 5.37112Z" fill="#7500BD"/>
<path d="M16.8032 29.6288C16.4257 29.6288 16.1196 29.9349 16.1196 30.3124V33.6195C16.1196 33.9971 16.4257 34.3031 16.8032 34.3031C17.1807 34.3031 17.4868 33.9971 17.4868 33.6195V30.3124C17.4868 29.9349 17.1807 29.6288 16.8032 29.6288Z" fill="#7500BD"/>
<path d="M4.67428 17.5C4.67428 17.1225 4.36816 16.8164 3.99068 16.8164H0.683594C0.306113 16.8164 0 17.1225 0 17.5C0 17.8775 0.306113 18.1836 0.683594 18.1836H3.99068C4.36816 18.1836 4.67428 17.8775 4.67428 17.5Z" fill="#7500BD"/>
<path d="M9.80477 6.7459C9.93144 6.96519 10.1611 7.08776 10.3974 7.08776C10.5134 7.08776 10.6309 7.05823 10.7386 6.99609C11.0655 6.80735 11.1776 6.38927 10.9888 6.0623L9.33528 3.19832C9.14654 2.87142 8.72865 2.75938 8.40149 2.94812C8.07452 3.13686 7.96248 3.55495 8.15129 3.88191L9.80477 6.7459Z" fill="#7500BD"/>
<path d="M5.36557 23.3142L2.50158 24.9678C2.17462 25.1565 2.06258 25.5746 2.25139 25.9015C2.37806 26.1208 2.60775 26.2434 2.84407 26.2434C2.96 26.2434 3.07758 26.2139 3.18518 26.1517L6.04916 24.4982C6.37612 24.3095 6.48817 23.8914 6.29936 23.5644C6.11069 23.2375 5.69253 23.1254 5.36557 23.3142Z" fill="#7500BD"/>
<path d="M2.50158 10.0322L5.36557 11.6858C5.47323 11.7479 5.59074 11.7774 5.70668 11.7774C5.94293 11.7774 6.17276 11.6549 6.29936 11.4356C6.48817 11.1086 6.37612 10.6905 6.04916 10.5018L3.18518 8.84822C2.85815 8.65941 2.44006 8.77145 2.25139 9.09842C2.06258 9.42538 2.17462 9.84347 2.50158 10.0322Z" fill="#7500BD"/>
<path d="M10.7386 28.0039C10.4115 27.8151 9.99344 27.9271 9.80477 28.2541L8.15129 31.1181C7.96248 31.445 8.07452 31.8631 8.40149 32.0519C8.50915 32.114 8.62666 32.1435 8.7426 32.1435C8.97885 32.1435 9.20867 32.021 9.33528 31.8017L10.9888 28.9377C11.1776 28.6107 11.0655 28.1926 10.7386 28.0039Z" fill="#7500BD"/>
<path d="M31.5488 11.3567C31.9264 11.3567 32.2324 11.0506 32.2324 10.6731C32.2324 10.2955 31.9264 9.98947 31.5488 9.98947C31.1713 9.98947 30.8652 10.2955 30.8652 10.6731C30.8652 11.0506 31.1713 11.3567 31.5488 11.3567Z" fill="#7500BD"/>
</svg>
