<svg width="25" height="25" viewBox="0 0 25 25" fill="none" xmlns="http://www.w3.org/2000/svg">
<g clip-path="url(#clip0)">
<path d="M19.6039 4.72488L15.4526 0.573349C15.0721 0.192833 14.6782 0 14.2819 0C13.6772 0 13.0669 0.482941 13.0669 1.56155V2.70309C7.17279 3.05119 2.29341 7.57446 1.56823 13.4966C1.52761 13.8273 1.71567 14.1439 2.02562 14.2666C2.11335 14.3013 2.20472 14.3181 2.29493 14.3181C2.52343 14.3181 2.74507 14.2111 2.88621 14.0182C4.83133 11.3605 7.95442 9.77383 11.2404 9.77383C11.8494 9.77383 12.4615 9.82876 13.0669 9.93748V11.1944C13.0669 11.5936 13.1468 11.9286 13.304 12.1895C13.521 12.5496 13.8773 12.756 14.2819 12.756C14.6782 12.756 15.0721 12.5629 15.4526 12.1826L19.6039 8.03108C20.5155 7.11956 20.5155 5.63622 19.6039 4.72488Z" fill="#00D8E0"/>
<path d="M22.9619 10.7334C22.6518 10.6108 22.2982 10.713 22.1013 10.9819C20.1562 13.6395 17.0331 15.2262 13.7471 15.2262C13.1383 15.2262 12.5262 15.1712 11.9206 15.0625V13.8056C11.9206 12.727 11.3105 12.244 10.7057 12.244C10.3093 12.244 9.91545 12.4371 9.53513 12.8176L5.38359 16.9689C4.47207 17.8804 4.47207 19.3636 5.38359 20.2753L9.53513 24.4267C9.91545 24.8072 10.3093 25 10.7057 25C11.3105 25 11.9206 24.5171 11.9206 23.4385V22.2969C17.8149 21.9488 22.6943 17.4255 23.4193 11.5036C23.4599 11.1727 23.2719 10.8561 22.9619 10.7334Z" fill="#54E360"/>
<path d="M13.0666 11.1944C13.0666 11.5936 13.1465 11.9286 13.3036 12.1895C13.5207 12.5496 13.877 12.756 14.2815 12.756C14.6779 12.756 15.0718 12.5629 15.4523 12.1826L19.6036 8.03108C20.5151 7.11956 20.5151 5.63641 19.6036 4.72488L15.4523 0.573349C15.0718 0.192833 14.6779 0 14.2815 0C13.6769 0 13.0666 0.482941 13.0666 1.56155V2.70309C12.8745 2.71454 12.6834 2.73056 12.4934 2.75078V9.85146C12.6849 9.87511 12.8762 9.90334 13.0666 9.93748V11.1944Z" fill="#00ACB3"/>
<path d="M22.9617 10.7334C22.6516 10.6108 22.298 10.713 22.1011 10.9819C20.156 13.6395 17.0329 15.2262 13.7469 15.2262C13.3296 15.2262 12.9107 15.1997 12.4934 15.1485V22.2492C18.1283 21.6522 22.7176 17.2325 23.4191 11.5036C23.4597 11.1727 23.2717 10.8561 22.9617 10.7334Z" fill="#00AB5E"/>
</g>
<defs>
<clipPath id="clip0">
<rect width="25" height="25" fill="white"/>
</clipPath>
</defs>
</svg>
