<svg width="25" height="25" viewBox="0 0 25 25" fill="none" xmlns="http://www.w3.org/2000/svg">
<g clip-path="url(#clip0)">
<path d="M2.64717 12.1924C2.64717 12.1924 3.63486 13.6434 5.70498 14.8716C5.70498 14.8716 4.20571 2.20063 13.9744 0C11.4716 9.1856 17.158 11.7761 19.2308 6.92314C22.6924 11.5448 20.0641 15.5769 20.0641 15.5769C21.4835 15.7814 22.6758 14.2307 22.6758 14.2307C22.6864 14.4217 22.6924 14.6141 22.6924 14.8078C22.6924 20.4368 18.1292 25 12.5001 25C6.87109 25 2.30786 20.4368 2.30786 14.8077C2.30786 13.9035 2.42622 13.0271 2.64717 12.1924Z" fill="#FF6536"/>
<path d="M22.6757 14.2307C22.6757 14.2307 21.4834 15.7814 20.064 15.5769C20.064 15.5769 22.6923 11.5448 19.2307 6.92314C17.1579 11.7761 11.4715 9.1856 13.9743 0C13.4511 0.117871 12.9605 0.265967 12.5 0.440332V25C18.1291 25 22.6923 20.4368 22.6923 14.8077C22.6923 14.614 22.6863 14.4217 22.6757 14.2307Z" fill="#FF421D"/>
<path d="M8.03003 20.5301C8.03003 22.9987 10.0313 25 12.5 25C14.9686 25 16.9699 22.9987 16.9699 20.5301C16.9699 19.2087 16.3966 18.0213 15.4851 17.203C13.7569 19.5509 11.2941 15.9894 13.2134 13.3885C13.2134 13.3885 8.03003 14.038 8.03003 20.5301Z" fill="#FBBF00"/>
<path d="M16.9699 20.5301C16.9699 19.2087 16.3966 18.0213 15.4852 17.203C13.7569 19.5509 11.2941 15.9894 13.2135 13.3885C13.2135 13.3885 12.9318 13.4239 12.5 13.5602V25C14.9687 25 16.9699 22.9987 16.9699 20.5301Z" fill="#FFA900"/>
</g>
<defs>
<clipPath id="clip0">
<rect width="25" height="25" fill="white"/>
</clipPath>
</defs>
</svg>
