<svg width="59" height="69" viewBox="0 0 59 69" fill="none" xmlns="http://www.w3.org/2000/svg">
<path d="M29.5 0L59 17.0318V51.0955L29.5 68.1274L-1.52588e-05 51.0955V17.0318L29.5 0ZM27.5003 20.186H9.46267L27.5004 30.6001V20.186H27.5003ZM31.4997 30.6001L49.5375 20.186H31.4997V30.6001ZM33.4326 34.1022L42.5057 39.3121L51.5545 23.6394L33.4326 34.1022ZM31.4997 37.604V58.3744L40.5059 42.7754L31.4997 37.604ZM27.5003 37.5272L18.4814 42.7342L27.5003 58.3554V37.5272ZM25.5006 34.0637L7.46284 23.6496L16.4817 39.2708L25.5006 34.0637ZM27.5003 16.1866V5.77258L9.46253 16.1867H27.5003V16.1866ZM31.4997 16.1866H49.5375L31.4997 5.77245V16.1866ZM55.0006 25.6694L45.9739 41.3037L55.0006 46.4869V25.6694ZM43.9743 44.7671L34.9798 60.3457L52.9928 49.9457L43.9743 44.7671ZM15.0179 44.7339L5.99907 49.941L24.0368 60.3551L15.0179 44.7339ZM13.0183 41.2703L3.99937 25.6491V46.4773L13.0183 41.2703Z" fill="#AC24FF"/>
</svg>
