<svg width="38" height="44" viewBox="0 0 38 44" fill="none" xmlns="http://www.w3.org/2000/svg">
<path d="M18.8612 0L37.7224 10.8895V32.6686L18.8612 43.5581L-1.14441e-05 32.6686V10.8895L18.8612 0ZM17.5827 12.9062H6.05008L17.5828 19.5646V12.9062H17.5827ZM20.1397 19.5646L31.6724 12.9062H20.1397V19.5646ZM21.3756 21.8037L27.1766 25.1347L32.962 15.1142L21.3756 21.8037ZM20.1397 24.0426V37.3224L25.898 27.349L20.1397 24.0426ZM17.5827 23.9935L11.8163 27.3227L17.5827 37.3103V23.9935ZM16.3041 21.7791L4.77146 15.1207L10.5378 25.1083L16.3041 21.7791ZM17.5827 10.3491V3.69077L6.04999 10.3492H17.5827V10.3491ZM20.1397 10.3491H31.6724L20.1397 3.69069V10.3491ZM35.1654 16.4121L29.394 26.408L35.1654 29.722V16.4121ZM28.1155 28.6224L22.3648 38.5828L33.8816 31.9334L28.1155 28.6224ZM9.60192 28.6012L3.83558 31.9304L15.3683 38.5888L9.60192 28.6012ZM8.32339 26.3867L2.55705 16.3991V29.7158L8.32339 26.3867Z" fill="#AC24FF"/>
</svg>
