<svg width="20" height="20" viewBox="0 0 20 20" fill="none" xmlns="http://www.w3.org/2000/svg">
<g clip-path="url(#clip0)">
<path d="M20 10C20 15.3429 15.8098 19.7073 10.5363 19.9857C10.3588 19.9951 10.18 20 10 20C9.4743 20 8.95836 19.9596 8.45469 19.8812C8.01715 19.8134 7.58938 19.7175 7.17305 19.5947C6.50652 19.3988 5.86938 19.1355 5.26898 18.8122C4.08367 18.1747 3.04203 17.3049 2.20449 16.2637C2.03594 16.0547 1.87594 15.8384 1.72449 15.6155C0.635937 14.0147 0 12.0816 0 10C0 4.47715 4.47715 0 10 0C15.5229 0 20 4.47715 20 10Z" fill="#F99400"/>
<path d="M17.2679 6.89145C17.0299 6.25633 16.598 5.70531 15.9715 5.23633C15.6082 4.96449 15.1332 4.72082 14.5687 4.49918L15.1936 2.09754L13.2184 1.58328L12.6144 3.90367L11.3446 3.57348L11.9482 1.25309L9.97313 0.738789L9.36906 3.05918L5.17602 1.96777L4.66785 3.92043L5.22336 4.06531C5.59316 4.16125 5.83602 4.26082 5.9507 4.36246C6.06375 4.46367 6.13316 4.57918 6.15684 4.70777C6.18254 4.83676 6.13848 5.10942 6.02988 5.52777L3.98133 13.3976C3.87437 13.8086 3.77848 14.067 3.69398 14.1706C3.60949 14.2755 3.49398 14.3421 3.34543 14.3718C3.19645 14.4012 2.75523 14.3212 2.38543 14.2253L1.72461 15.6155C1.87605 15.8384 2.03605 16.0547 2.20461 16.2637L5.69605 17.1722L5.2691 18.8122C5.86949 19.1355 6.50664 19.3988 7.17316 19.5947L7.66988 17.6861L8.89684 18.0057C8.91113 18.009 8.92582 18.0119 8.94012 18.0156L8.4548 19.8813C8.95844 19.9596 9.47438 20 10.0001 20C10.1801 20 10.3589 19.9951 10.5364 19.9857L10.9454 18.4147C11.6054 18.498 12.1736 18.5106 12.6462 18.4502C13.5568 18.3343 14.3209 18.02 14.936 17.5061C15.5515 16.9935 15.9568 16.3625 16.152 15.6131C16.3136 14.987 16.3123 14.3804 16.1491 13.7935C15.985 13.2086 15.6875 12.7061 15.2548 12.2923C14.9585 11.9996 14.5001 11.6813 13.8838 11.3425C14.5548 11.2931 15.1177 11.1572 15.5785 10.9351C16.036 10.7118 16.4197 10.418 16.7295 10.0506C17.0368 9.68493 17.2528 9.2686 17.3736 8.80328C17.5405 8.16328 17.5046 7.52571 17.2679 6.89145ZM12.585 14.2886C12.458 14.7796 12.2098 15.1645 11.8433 15.4441C11.476 15.722 11.0805 15.8665 10.658 15.8755C10.236 15.8845 9.72496 15.8118 9.12617 15.6559L8.09637 15.3877C7.75231 15.2984 7.5482 15.2249 7.48004 15.1677C7.41227 15.1098 7.37434 15.0306 7.36453 14.9269C7.35598 14.8449 7.40535 14.5898 7.51105 14.1547L8.30617 11.0996L10.1319 11.5747C10.9335 11.7837 11.5094 12.0131 11.8617 12.2629C12.2131 12.5118 12.449 12.8082 12.5686 13.149C12.6882 13.4906 12.6939 13.8698 12.585 14.2886ZM13.816 8.44164C13.7233 8.79879 13.5433 9.0886 13.276 9.31063C13.0098 9.53348 12.6645 9.66164 12.2421 9.69512C11.8193 9.72899 11.2033 9.64125 10.3936 9.43063L8.8466 9.02778L9.74211 5.58695L11.2891 5.98942C12.1936 6.22492 12.8058 6.4441 13.1274 6.64656C13.4486 6.84903 13.6674 7.10696 13.7854 7.41719C13.9017 7.72856 13.9131 8.06981 13.816 8.44164Z" fill="#F0EFEB"/>
</g>
<defs>
<clipPath id="clip0">
<rect width="20" height="20" fill="white"/>
</clipPath>
</defs>
</svg>
