<svg width="21" height="18" viewBox="0 0 21 18" fill="none" xmlns="http://www.w3.org/2000/svg">
<path d="M5.95354 9.87062C5.91087 10.6119 6.48151 11.2465 7.22281 11.2892C7.24948 11.2892 7.27615 11.2892 7.30281 11.2892C8.04944 11.2892 8.65208 10.6866 8.64675 9.93995C8.64675 9.19332 8.04411 8.59068 7.29748 8.59601C6.58284 8.59601 5.99087 9.15598 5.95354 9.87062Z" fill="#0033AD"/>
<path d="M0.929729 9.524C0.689743 9.508 0.481755 9.69466 0.471089 9.93465C0.460423 10.1746 0.641746 10.3826 0.881732 10.3933C1.12172 10.4093 1.32437 10.2226 1.34037 9.98265C1.35637 9.74266 1.16972 9.54 0.929729 9.524Z" fill="#0033AD"/>
<path d="M5.86819 2.05234C6.08151 1.94568 6.16684 1.67902 6.06018 1.4657C5.95352 1.25237 5.68686 1.16704 5.47354 1.2737C5.26021 1.38037 5.17488 1.64169 5.28155 1.85501C5.38821 2.07367 5.64953 2.16434 5.86819 2.05234C5.86819 2.05234 5.86285 2.05234 5.86819 2.05234Z" fill="#0033AD"/>
<path d="M7.23344 4.43622C7.56409 4.27089 7.69742 3.86558 7.53209 3.53492C7.36677 3.20427 6.96146 3.07094 6.63081 3.23627C6.30016 3.4016 6.16683 3.80691 6.33216 4.13756C6.49748 4.46822 6.90279 4.60155 7.23344 4.43622Z" fill="#0033AD"/>
<path d="M2.63635 6.07347C2.89234 6.23879 3.23365 6.16946 3.40431 5.91348C3.56964 5.65749 3.50031 5.31618 3.24432 5.14552C2.98834 4.98019 2.64702 5.04952 2.47636 5.30551C2.30571 5.5615 2.38037 5.90814 2.63635 6.07347Z" fill="#0033AD"/>
<path d="M3.45231 9.284C3.079 9.26267 2.76435 9.54532 2.74301 9.91864C2.72168 10.292 3.00433 10.6066 3.37765 10.6279C3.75096 10.6493 4.06561 10.3666 4.08694 9.99331C4.10828 9.62532 3.82562 9.30533 3.45231 9.284Z" fill="#0033AD"/>
<path d="M2.71097 13.8011C2.43898 13.9398 2.32698 14.2704 2.46564 14.5478C2.60431 14.8197 2.93496 14.9317 3.21228 14.7931C3.48427 14.6544 3.59627 14.3238 3.45761 14.0464C3.31894 13.7745 2.98296 13.6625 2.71097 13.8011Z" fill="#0033AD"/>
<path d="M5.3242 7.89206C5.69219 8.13205 6.18283 8.03072 6.41749 7.66274C6.65748 7.29476 6.55615 6.80411 6.18816 6.56946C5.82018 6.32947 5.32953 6.4308 5.09488 6.79878C4.85489 7.16143 4.95622 7.65207 5.3242 7.89206Z" fill="#0033AD"/>
<path d="M13.6172 4.38291C13.9265 4.58556 14.3478 4.50023 14.5505 4.19092C14.7532 3.8816 14.6678 3.46028 14.3585 3.25763C14.0492 3.05497 13.6278 3.1403 13.4252 3.44962C13.2172 3.76427 13.3025 4.18025 13.6172 4.38291Z" fill="#0033AD"/>
<path d="M14.9931 2.00964C15.1958 2.14296 15.4624 2.0843 15.5957 1.88164C15.729 1.67899 15.6704 1.41233 15.4677 1.27901C15.2651 1.14568 14.9984 1.20434 14.8651 1.40167C14.7371 1.60432 14.7958 1.87631 14.9931 2.00964Z" fill="#0033AD"/>
<path d="M13.7185 8.58537C12.9772 8.54271 12.3372 9.11335 12.2999 9.85464C12.2572 10.5959 12.8279 11.2359 13.5692 11.2732C13.5958 11.2732 13.6225 11.2732 13.6438 11.2732C14.3851 11.2732 14.9878 10.6706 14.9878 9.92397C14.9931 9.21467 14.4331 8.62271 13.7185 8.58537Z" fill="#0033AD"/>
<path d="M7.6761 7.79606C7.90543 8.24937 8.36941 8.53736 8.88139 8.53736C9.6227 8.53736 10.2253 7.93472 10.2253 7.18808C10.2253 6.98009 10.1773 6.7721 10.0813 6.58011C9.74536 5.91348 8.93472 5.64682 8.27342 5.98281C7.60677 6.32412 7.34012 7.13475 7.6761 7.79606Z" fill="#0033AD"/>
<path d="M18.2303 6.07346C18.5023 5.9348 18.6089 5.59882 18.4703 5.32683C18.3316 5.05485 17.9956 4.94819 17.7237 5.08685C17.4517 5.22551 17.345 5.55616 17.4783 5.82814C17.6223 6.10013 17.953 6.21212 18.2303 6.07346Z" fill="#0033AD"/>
<path d="M14.8171 6.50012C14.4278 6.69744 14.2678 7.17209 14.4652 7.5614C14.6625 7.95072 15.1371 8.11071 15.5264 7.91339C15.9157 7.71606 16.0757 7.24142 15.8784 6.8521C15.6811 6.46279 15.2064 6.30813 14.8171 6.50012Z" fill="#0033AD"/>
<path d="M10.4173 1.80699C10.7213 1.82299 10.9826 1.58834 11.0039 1.28435C11.0253 0.98037 10.7853 0.719051 10.4813 0.697719C10.1773 0.681719 9.91602 0.91104 9.89469 1.21502C9.87869 1.52434 10.1133 1.78566 10.4173 1.80699Z" fill="#0033AD"/>
<path d="M10.412 5.28948C10.8493 5.31614 11.2226 4.98016 11.244 4.54285C11.2706 4.10554 10.9346 3.73223 10.4973 3.7109C10.06 3.68423 9.68671 4.02021 9.66537 4.45752C9.64404 4.89483 9.97469 5.26814 10.412 5.28948Z" fill="#0033AD"/>
<path d="M6.12418 13.3745C6.5135 13.1771 6.67349 12.7025 6.47617 12.3132C6.27884 11.9239 5.80419 11.7639 5.41487 11.9612C5.02555 12.1585 4.86556 12.6332 5.06289 13.0225C5.26021 13.4118 5.73486 13.5718 6.12418 13.3745Z" fill="#0033AD"/>
<path d="M10.924 6.44678C10.5186 7.07075 10.6893 7.90272 11.3133 8.30803C11.9372 8.71335 12.7692 8.54269 13.1745 7.91872C13.5798 7.29474 13.4092 6.46278 12.7852 6.05746C12.5665 5.91347 12.3105 5.83881 12.0492 5.83881C11.5959 5.83881 11.1746 6.06813 10.924 6.44678Z" fill="#0033AD"/>
<path d="M13.2652 12.0786C12.9292 11.4119 12.1186 11.1453 11.4573 11.4812C10.7906 11.8172 10.524 12.6279 10.8599 13.2892C11.1959 13.9558 12.0066 14.2225 12.6679 13.8865C13.3292 13.5558 13.6012 12.7559 13.2705 12.0892C13.2705 12.0839 13.2705 12.0839 13.2652 12.0786Z" fill="#0033AD"/>
<path d="M15.6171 11.9825C15.2491 11.7425 14.7584 11.8439 14.5238 12.2118C14.2838 12.5798 14.3851 13.0705 14.7531 13.3051C15.1211 13.5451 15.6117 13.4438 15.8464 13.0758C16.0864 12.7132 15.985 12.2225 15.6171 11.9825Z" fill="#0033AD"/>
<path d="M18.1983 9.96129C18.2196 9.58797 17.9369 9.27332 17.5636 9.25199C17.1903 9.23065 16.8757 9.51331 16.8543 9.88663C16.833 10.2599 17.1157 10.5746 17.489 10.5959C17.8569 10.6173 18.1769 10.3293 18.1983 9.96129Z" fill="#0033AD"/>
<path d="M20.0596 9.4813C19.8196 9.4653 19.6116 9.65196 19.6009 9.89195C19.5902 10.1319 19.7716 10.3399 20.0116 10.3506C20.2515 10.3666 20.4542 10.1799 20.4702 9.93994C20.4809 9.69996 20.2995 9.4973 20.0596 9.4813Z" fill="#0033AD"/>
<path d="M18.305 13.8011C18.049 13.6358 17.7077 13.7051 17.537 13.9611C17.3717 14.2171 17.441 14.5584 17.697 14.7291C17.953 14.8944 18.2943 14.8251 18.4649 14.5691C18.6356 14.3131 18.5609 13.9665 18.305 13.8011Z" fill="#0033AD"/>
<path d="M5.94284 17.865C5.74019 17.7316 5.47355 17.7903 5.34022 17.9876C5.2069 18.1903 5.26556 18.457 5.46288 18.5903C5.66553 18.7236 5.93218 18.665 6.0655 18.4676C6.20416 18.2703 6.1455 17.9983 5.94284 17.865Z" fill="#0033AD"/>
<path d="M15.0731 17.8223C14.8598 17.9289 14.7744 18.1956 14.8811 18.4089C14.9878 18.6222 15.2544 18.7075 15.4678 18.6009C15.6811 18.4942 15.7664 18.2329 15.6598 18.0196C15.5531 17.8009 15.2918 17.7103 15.0731 17.8223C15.0731 17.8223 15.0784 17.8223 15.0731 17.8223Z" fill="#0033AD"/>
<path d="M10.0173 13.4278C10.4227 12.8038 10.252 11.9718 9.62803 11.5612C9.00406 11.1559 8.1721 11.3265 7.76146 11.9505C7.35081 12.5745 7.5268 13.4064 8.15077 13.8171C8.36943 13.9611 8.62542 14.0357 8.88674 14.0357C9.34538 14.0411 9.76669 13.8118 10.0173 13.4278Z" fill="#0033AD"/>
<path d="M7.32412 15.4917C7.01479 15.2891 6.59347 15.3744 6.39081 15.6837C6.18815 15.993 6.27348 16.4143 6.5828 16.617C6.89213 16.8197 7.31345 16.7343 7.51611 16.425C7.7241 16.1157 7.63877 15.6944 7.32412 15.4917Z" fill="#0033AD"/>
<path d="M10.4706 14.5851C10.0333 14.5584 9.65999 14.8944 9.63866 15.3317C9.61199 15.769 9.94798 16.1424 10.3853 16.1637C10.8226 16.185 11.1959 15.8544 11.2173 15.4171C11.2439 14.9851 10.9079 14.6064 10.4706 14.5851Z" fill="#0033AD"/>
<path d="M13.7079 15.4384C13.3772 15.609 13.2439 16.0144 13.4145 16.345C13.5852 16.6757 13.9905 16.809 14.3212 16.6383C14.6518 16.473 14.7851 16.0677 14.6198 15.737C14.4492 15.4064 14.0438 15.2677 13.7079 15.4384Z" fill="#0033AD"/>
</svg>
