<svg width="20" height="17" viewBox="0 0 20 17" fill="none" xmlns="http://www.w3.org/2000/svg">
<path fill-rule="evenodd" clip-rule="evenodd" d="M3.66427 0.0884056L0.016066 7.75022C-0.0134025 7.80916 -0.00161509 7.87988 0.0455345 7.92114L9.89391 17.3629C9.95285 17.4159 10.0413 17.4159 10.1002 17.3629L19.9545 7.92114C20.0016 7.87399 20.0134 7.80916 19.9839 7.75022L16.3357 0.0884056C16.3122 0.0353622 16.2591 0 16.2002 0H3.79982C3.74089 0 3.68784 0.0353622 3.66427 0.0884056Z" fill="#50AF95"/>
<path fill-rule="evenodd" clip-rule="evenodd" d="M11.0519 7.97975C10.9948 7.98451 10.6993 8.00357 10.0417 8.00357C9.51751 8.00357 9.14582 7.98928 9.01715 7.97975C6.9919 7.88921 5.4813 7.53657 5.4813 7.11723C5.4813 6.69311 6.9919 6.34048 9.01715 6.25471V7.63188C9.15058 7.64141 9.52704 7.66524 10.0512 7.66524C10.6802 7.66524 10.9948 7.63664 11.0519 7.63188V6.25471C13.0724 6.34525 14.583 6.69788 14.583 7.11723C14.583 7.53657 13.0724 7.88921 11.0519 7.97975ZM11.0519 6.11175V4.87753H13.873V3H6.19609V4.87753H9.01715V6.11175C6.72504 6.21658 5 6.66929 5 7.2173C5 7.76531 6.72504 8.21325 9.01715 8.32285V12.2685H11.0567V8.31808C13.3441 8.21325 15.0643 7.76054 15.0643 7.2173C15.0643 6.67405 13.3441 6.21658 11.0519 6.11175Z" fill="white"/>
</svg>
