<svg width="20" height="20" viewBox="0 0 20 20" fill="none" xmlns="http://www.w3.org/2000/svg">
<path d="M20 10C20 4.47715 15.5228 0 10 0C4.47715 0 0 4.47715 0 10C0 15.5228 4.47715 20 10 20C15.5228 20 20 15.5228 20 10Z" fill="#0052FF"/>
<path d="M10.0029 13.5156C8.06057 13.5156 6.4873 11.9424 6.4873 10C6.4873 8.05762 8.06057 6.48438 10.0029 6.48438C11.7432 6.48438 13.1875 7.75293 13.4658 9.41406H17.0078C16.709 5.80469 13.6885 2.96875 10.0029 2.96875C6.12109 2.96875 2.97168 6.11816 2.97168 10C2.97168 13.8818 6.12109 17.0312 10.0029 17.0312C13.6885 17.0312 16.709 14.1953 17.0078 10.5859H13.4629C13.1846 12.2471 11.7432 13.5156 10.0029 13.5156Z" fill="white"/>
</svg>
