<svg width="20" height="16" viewBox="0 0 20 16" fill="none" xmlns="http://www.w3.org/2000/svg">
<path d="M9.37231 0.018111C11.1031 -0.0935527 12.8665 0.255396 14.4251 1.02774C16.7189 2.15368 18.5474 4.19154 19.4128 6.59696C19.7943 7.65776 19.999 8.7837 19.999 9.90965V14.097C19.999 14.2692 20.0037 14.4413 19.9618 14.6088C19.8687 15.0322 19.5663 15.4044 19.1708 15.5812C18.8963 15.7115 18.58 15.7255 18.2822 15.6789C17.6448 15.5626 17.1469 14.9624 17.1423 14.3157C17.1376 13.0176 17.1423 11.7195 17.1423 10.4168C17.1516 10.0492 17.1562 9.65375 16.9562 9.32806C16.6305 8.72787 15.8488 8.44406 15.2161 8.69996C14.681 8.89072 14.2948 9.43042 14.2902 9.99805C14.2855 11.3194 14.2902 12.6361 14.2902 13.9528C14.2902 14.1994 14.3041 14.4506 14.2297 14.6879C14.0948 15.1532 13.7086 15.53 13.2433 15.6557C12.6338 15.8232 11.9313 15.5533 11.6242 14.9903C11.4148 14.6507 11.4288 14.2413 11.4334 13.8597C11.4288 12.5524 11.4381 11.2403 11.4288 9.93291C11.4148 9.26758 10.8705 8.66739 10.2098 8.58364C9.78175 8.5185 9.33044 8.66274 9.01871 8.96516C8.73955 9.23036 8.57671 9.61188 8.57671 9.99805V13.8132C8.57205 14.1343 8.60927 14.4646 8.48831 14.767C8.29755 15.3114 7.74853 15.7115 7.16695 15.6975C6.5714 15.7301 5.99447 15.3207 5.80371 14.7624C5.6967 14.4879 5.71997 14.1901 5.71997 13.9016C5.71997 12.5849 5.72462 11.2682 5.71997 9.95152C5.71531 9.30015 5.20817 8.70461 4.57076 8.58829C3.98917 8.46267 3.3471 8.75579 3.05864 9.27689C2.93301 9.49556 2.86788 9.7468 2.86788 9.99339V14.2692C2.87253 14.6833 2.68177 15.0974 2.36074 15.3626C1.87686 15.7859 1.09521 15.8092 0.588068 15.4184C0.220507 15.1671 0.00183105 14.7344 0.00183105 14.2878V9.95617C0.00648373 8.31844 0.420572 6.68536 1.20222 5.24304C1.83964 4.06592 2.71899 3.01907 3.7705 2.18159C5.3524 0.906767 7.3391 0.13908 9.37231 0.018111Z" fill="#0DA8FF"/>
</svg>
